<svg width="124" height="51" viewBox="0 0 124 51" fill="none" xmlns="http://www.w3.org/2000/svg">
<g clip-path="url(#clip0_4315_50825)">
<path d="M57.5879 49.606H41.061V0.793945H53.8493C57.8791 0.793995 61.0237 1.33557 63.2833 2.41868C65.5427 3.50189 67.2665 4.99268 68.4545 6.89108C69.6424 8.78956 70.2364 10.985 70.2364 13.4774C70.2364 18.2759 67.7556 21.7117 62.7941 23.7849C66.358 24.4604 69.194 25.9279 71.3021 28.1874C73.4102 30.4469 74.4642 33.149 74.4643 36.2936C74.4642 38.786 73.8236 41.0106 72.5425 42.9673C71.2613 44.9239 69.3804 46.5195 66.8996 47.7541C64.4188 48.9887 61.3149 49.606 57.5879 49.606ZM54.0589 7.01337H48.0492V21.6884H52.6963C56.4232 21.6885 59.0729 20.978 60.6452 19.557C62.2175 18.1362 63.0037 16.296 63.0037 14.0364C63.0037 9.35443 60.0221 7.01342 54.0589 7.01337ZM54.583 27.9078H48.0492V43.3865H54.9325C58.7526 43.3865 61.344 43.0895 62.7067 42.4955C64.0694 41.9016 65.1642 40.9756 65.9912 39.7178C66.8181 38.4599 67.2315 37.1089 67.2315 35.6647C67.2315 34.1739 66.7948 32.8112 65.9213 31.5766C65.0477 30.3421 63.8073 29.422 62.2001 28.8163C60.5928 28.2107 58.0538 27.9079 54.583 27.9078Z" fill="black"/>
<path d="M17.336 49.606H0.809082V0.793945H13.5973C17.6271 0.793995 20.7718 1.33557 23.0313 2.41868C25.2908 3.50189 27.0145 4.99268 28.2025 6.89108C29.3905 8.78956 29.9844 10.985 29.9845 13.4774C29.9844 18.2759 27.5037 21.7117 22.5421 23.7849C26.106 24.4604 28.9421 25.9279 31.0502 28.1874C33.1582 30.4469 34.2123 33.149 34.2123 36.2936C34.2123 38.786 33.5717 41.0106 32.2906 42.9673C31.0094 44.9239 29.1284 46.5195 26.6477 47.7541C24.1668 48.9887 21.063 49.606 17.336 49.606ZM13.807 7.01337H7.7972V21.6884H12.4443C16.1713 21.6885 18.8209 20.978 20.3933 19.557C21.9656 18.1362 22.7518 16.296 22.7518 14.0364C22.7518 9.35443 19.7702 7.01342 13.807 7.01337ZM14.3311 27.9078H7.7972V43.3865H14.6805C18.5006 43.3865 21.0921 43.0895 22.4548 42.4955C23.8174 41.9016 24.9122 40.9756 25.7392 39.7178C26.5661 38.4599 26.9796 37.1089 26.9796 35.6647C26.9796 34.1739 26.5428 32.8112 25.6693 31.5766C24.7958 30.3421 23.5554 29.422 21.9481 28.8163C20.3409 28.2107 17.8018 27.9079 14.3311 27.9078Z" fill="black"/>
<path d="M123.381 38.2852V45.9722C118.256 48.7674 112.339 50.165 105.631 50.165C100.18 50.165 95.5562 49.0702 91.7593 46.8806C87.9624 44.691 84.9575 41.6745 82.7447 37.831C80.5317 33.9876 79.4253 29.8296 79.4253 25.3572C79.4253 18.2527 81.9585 12.2778 87.0249 7.43268C92.0912 2.58763 98.3398 0.165089 105.771 0.165039C110.895 0.165089 116.59 1.50448 122.856 4.18321V11.6954C117.149 8.43436 111.571 6.8038 106.12 6.80375C100.529 6.8038 95.8881 8.56829 92.1961 12.0973C88.504 15.6263 86.658 20.0463 86.658 25.3572C86.658 30.7148 88.4749 35.1173 92.1087 38.5648C95.7425 42.0122 100.39 43.736 106.05 43.736C111.967 43.736 117.743 41.9191 123.381 38.2852Z" fill="black"/>
</g>
<defs>
<clipPath id="clip0_4315_50825">
<rect width="122.572" height="50" fill="white" transform="translate(0.809082 0.165039)"/>
</clipPath>
</defs>
</svg>
