<svg width="118" height="51" viewBox="0 0 118 51" fill="none" xmlns="http://www.w3.org/2000/svg">
<path fill-rule="evenodd" clip-rule="evenodd" d="M19.4045 0.846607C10.1193 3.09156 3.13961 10.18 1.39844 19.1334C0.547883 23.5068 1.07169 31.0504 2.46654 34.5263C6.52456 44.6357 15.2504 50.1864 27.0513 50.165C34.6085 50.1513 40.7959 47.7398 45.6103 42.9309C54.0262 34.525 55.2877 20.4714 48.5351 10.3516C45.2166 5.37838 39.8111 2.00435 32.9156 0.602226C29.5971 -0.0722145 22.6893 0.0524774 19.4045 0.846607ZM51.0276 1.35403C51.0276 1.53652 51.5624 3.12341 52.2154 4.88096C54.6952 11.5503 65.697 40.574 67.3139 44.7108L69.0036 49.0341L80.4641 49.2876L83.0973 42.3347C85.7336 35.3719 88.4587 28.2953 91.2943 21.0462C92.1267 18.9186 93.669 14.9252 94.7216 12.1719C95.7747 9.41865 97.1254 5.975 97.7238 4.51917C98.3223 3.06334 98.8119 1.67487 98.8119 1.43367C98.8119 1.16881 96.5297 1.04548 93.0428 1.12239L87.2736 1.24982L86.4977 3.29771C85.5934 5.68374 84.4088 8.97358 80.8432 18.9983C76.4794 31.2674 75.3903 34.109 74.9812 34.2938C74.7651 34.3912 73.9131 32.5258 73.0881 30.1479C72.2634 27.7701 70.6684 23.2647 69.5434 20.136C68.4189 17.0073 66.6886 12.1947 65.6988 9.44141C64.709 6.68812 63.5735 3.6677 63.1753 2.72885L62.4513 1.02227H56.7395C53.598 1.02227 51.0276 1.17154 51.0276 1.35403ZM105.682 2.42485C103.526 3.7396 102.586 5.01294 102.015 7.39351C101.486 9.59477 101.855 11.6468 103.126 13.5873C104.98 16.4161 110.913 17.4601 113.834 15.4713C116.48 13.671 117.243 12.2188 117.243 8.98632C117.243 5.75383 116.48 4.30164 113.834 2.50131C111.808 1.12194 107.88 1.08507 105.682 2.42485ZM21.2194 11.6727C18.0938 13.1622 16.1533 15.1091 14.7594 18.1545C13.066 21.8526 12.8553 25.937 14.1391 30.1648C17.6656 41.7736 33.1936 43.0488 38.8718 32.1958C40.2648 29.5331 40.5301 22.4465 39.3615 19.1302C38.2297 15.9205 34.75 12.3763 31.7151 11.3419C28.3888 10.2087 24.0009 10.3466 21.2194 11.6727Z" fill="black"/>
<path fill-rule="evenodd" clip-rule="evenodd" d="M105.682 2.42485C103.526 3.7396 102.586 5.01294 102.015 7.39351C101.486 9.59477 101.855 11.6468 103.126 13.5873C104.98 16.4161 110.913 17.4601 113.834 15.4713C116.48 13.671 117.243 12.2188 117.243 8.98632C117.243 5.75383 116.48 4.30164 113.834 2.50131C111.808 1.12194 107.88 1.08507 105.682 2.42485Z" fill="#4A4395"/>
</svg>
