<svg width="84" height="51" viewBox="0 0 84 51" fill="none" xmlns="http://www.w3.org/2000/svg">
<g clip-path="url(#clip0_4315_50809)">
<path d="M23.956 18.4068C23.956 19.4233 24.0649 20.2475 24.2556 20.8519C24.4735 21.4563 24.7459 22.1156 25.1273 22.8299C25.2635 23.0497 25.318 23.2695 25.318 23.4618C25.318 23.7365 25.1546 24.0112 24.8004 24.286L23.0842 25.4398C22.8391 25.6046 22.5939 25.6871 22.376 25.6871C22.1036 25.6871 21.8312 25.5497 21.5587 25.3024C21.1774 24.8904 20.8505 24.4508 20.5781 24.0112C20.3057 23.5442 20.0333 23.0222 19.7336 22.3904C17.6088 24.9178 14.9392 26.1816 11.7248 26.1816C9.43652 26.1816 7.61138 25.5222 6.27657 24.2035C4.94177 22.8849 4.26074 21.1266 4.26074 18.9288C4.26074 16.5937 5.07797 14.6981 6.73967 13.2695C8.40137 11.8409 10.6079 11.1266 13.4137 11.1266C14.3399 11.1266 15.2933 11.209 16.3012 11.3464C17.3092 11.4838 18.3443 11.7035 19.434 11.9508V9.94531C19.434 7.85739 18.9981 6.40135 18.1536 5.5497C17.2819 4.69805 15.8109 4.28597 13.7134 4.28597C12.7599 4.28597 11.7792 4.39586 10.7713 4.64311C9.76342 4.89036 8.78274 5.19256 7.82931 5.57718C7.39345 5.76948 7.06656 5.87937 6.87587 5.93432C6.68519 5.98926 6.54898 6.01674 6.44002 6.01674C6.05865 6.01674 5.86796 5.74201 5.86796 5.16509V3.81893C5.86796 3.37937 5.92244 3.0497 6.05865 2.85739C6.19485 2.66509 6.44002 2.47278 6.82139 2.28047C7.77483 1.78597 8.91895 1.37388 10.2538 1.04421C11.5886 0.687065 13.0051 0.52223 14.5033 0.52223C17.745 0.52223 20.115 1.26399 21.6405 2.7475C23.1387 4.23102 23.9015 6.48377 23.9015 9.50575V18.4068H23.956ZM12.8961 22.5827C13.7951 22.5827 14.7213 22.4178 15.7019 22.0882C16.6826 21.7585 17.5543 21.1541 18.2898 20.3299C18.7257 19.8079 19.0526 19.231 19.216 18.5717C19.3795 17.9123 19.4884 17.1156 19.4884 16.1816V15.0277C18.6984 14.8354 17.854 14.6706 16.9823 14.5607C16.1106 14.4508 15.2661 14.3959 14.4216 14.3959C12.5965 14.3959 11.2617 14.753 10.3627 15.4948C9.46376 16.2365 9.02791 17.2805 9.02791 18.6541C9.02791 19.9453 9.3548 20.9068 10.0358 21.5662C10.6896 22.253 11.643 22.5827 12.8961 22.5827ZM34.7706 25.5497C34.2803 25.5497 33.9534 25.4673 33.7355 25.275C33.5175 25.1101 33.3268 24.7255 33.1634 24.2035L26.7618 2.96728C26.5983 2.41783 26.5166 2.06069 26.5166 1.86838C26.5166 1.42882 26.7345 1.18157 27.1704 1.18157H29.84C30.3576 1.18157 30.7117 1.26399 30.9024 1.4563C31.1203 1.62113 31.2838 2.00575 31.4472 2.52772L36.0237 20.7145L40.2733 2.52772C40.4095 1.97827 40.5729 1.62113 40.7909 1.4563C41.0088 1.29146 41.3902 1.18157 41.8805 1.18157H44.0598C44.5774 1.18157 44.9315 1.26399 45.1494 1.4563C45.3673 1.62113 45.558 2.00575 45.667 2.52772L49.9711 20.9343L54.6838 2.52772C54.8472 1.97827 55.0379 1.62113 55.2286 1.4563C55.4465 1.29146 55.8006 1.18157 56.291 1.18157H58.8244C59.2602 1.18157 59.5054 1.40135 59.5054 1.86838C59.5054 2.00575 59.4782 2.14311 59.4509 2.30794C59.4237 2.47278 59.3692 2.69256 59.2602 2.99476L52.6952 24.231C52.5317 24.7805 52.341 25.1376 52.1231 25.3024C51.9052 25.4673 51.551 25.5772 51.0879 25.5772H48.7452C48.2276 25.5772 47.8735 25.4948 47.6556 25.3024C47.4377 25.1101 47.247 24.753 47.138 24.2035L42.9157 6.48377L38.7206 24.1761C38.5843 24.7255 38.4209 25.0827 38.203 25.275C37.985 25.4673 37.6037 25.5497 37.1133 25.5497H34.7706ZM69.7752 26.2915C68.3587 26.2915 66.9422 26.1266 65.5801 25.797C64.2181 25.4673 63.1557 25.1101 62.4474 24.6981C62.0116 24.4508 61.7119 24.1761 61.603 23.9288C61.494 23.6816 61.4395 23.4068 61.4395 23.1596V21.7585C61.4395 21.1816 61.6574 20.9068 62.0661 20.9068C62.2295 20.9068 62.3929 20.9343 62.5564 20.9893C62.7198 21.0442 62.965 21.1541 63.2374 21.264C64.1636 21.6761 65.1715 22.0057 66.2339 22.2255C67.3236 22.4453 68.3859 22.5552 69.4756 22.5552C71.1918 22.5552 72.5266 22.253 73.4528 21.6486C74.379 21.0442 74.8693 20.1651 74.8693 19.0387C74.8693 18.2695 74.6241 17.6376 74.1338 17.1156C73.6435 16.5937 72.7173 16.1266 71.3825 15.6871L67.4325 14.4508C65.4439 13.8189 63.9729 12.8849 63.074 11.6486C62.175 10.4398 61.7119 9.09366 61.7119 7.66509C61.7119 6.51124 61.9571 5.49476 62.4474 4.61564C62.9378 3.73652 63.5915 2.96729 64.4088 2.36289C65.226 1.73102 66.1522 1.26399 67.2418 0.934318C68.3315 0.604648 69.4756 0.467285 70.6742 0.467285C71.2735 0.467285 71.9 0.494758 72.4993 0.577175C73.1259 0.659593 73.6979 0.769483 74.27 0.879373C74.8148 1.01674 75.3324 1.1541 75.8227 1.31893C76.3131 1.48377 76.6944 1.6486 76.9669 1.81344C77.3482 2.03322 77.6206 2.253 77.7841 2.50025C77.9475 2.72003 78.0292 3.02223 78.0292 3.40685V4.69805C78.0292 5.27498 77.8113 5.57718 77.4027 5.57718C77.1848 5.57718 76.8306 5.46728 76.3675 5.2475C74.8148 4.53322 73.0714 4.17608 71.1373 4.17608C69.5846 4.17608 68.3587 4.42333 67.5142 4.94531C66.6698 5.46728 66.2339 6.26399 66.2339 7.39036C66.2339 8.15959 66.5063 8.81893 67.0511 9.34091C67.596 9.86289 68.6039 10.3849 70.0477 10.8519L73.9159 12.0882C75.8772 12.72 77.2937 13.5992 78.1382 14.7255C78.9827 15.8519 79.3913 17.1431 79.3913 18.5717C79.3913 19.753 79.1461 20.8244 78.683 21.7585C78.1927 22.6926 77.5389 23.5167 76.6944 24.1761C75.85 24.8629 74.8421 25.3574 73.6707 25.7145C72.4449 26.0992 71.1645 26.2915 69.7752 26.2915Z" fill="#171717"/>
<path fill-rule="evenodd" clip-rule="evenodd" d="M74.9237 39.6434C65.9614 46.3192 52.9402 49.8632 41.7442 49.8632C26.0534 49.8632 11.9153 44.0115 1.23688 34.2863C0.392408 33.517 1.15515 32.4731 2.16307 33.0775C13.7132 39.8357 27.9603 43.9291 42.6976 43.9291C52.6406 43.9291 63.5642 41.8412 73.6161 37.5555C75.1143 36.8687 76.3947 38.5445 74.9237 39.6434Z" fill="#FF9900"/>
<path fill-rule="evenodd" clip-rule="evenodd" d="M78.6556 35.3577C77.5115 33.8742 71.0826 34.6435 68.1679 35.0006C67.2961 35.1105 67.1599 34.3413 67.9499 33.7643C73.0712 30.138 81.4887 31.1819 82.4694 32.3907C83.45 33.627 82.197 42.116 77.4025 46.1819C76.667 46.8138 75.9588 46.4841 76.2857 45.6599C77.3753 42.9402 79.7998 36.8138 78.6556 35.3577Z" fill="#FF9900"/>
</g>
<defs>
<clipPath id="clip0_4315_50809">
<rect width="82.8125" height="50" fill="white" transform="translate(0.419922 0.165039)"/>
</clipPath>
</defs>
</svg>
