<svg width="177" height="51" viewBox="0 0 177 51" fill="none" xmlns="http://www.w3.org/2000/svg">
<path d="M45.7725 0.165039H53.8711V50.165H45.7725V0.165039Z" fill="#17313B"/>
<path d="M82.0405 34.32C82.0405 42.0665 75.7025 42.7708 73.5898 42.7708C68.6602 42.7708 67.956 38.1933 67.956 35.7285V16.3623H59.8574V35.3764C59.8574 39.9538 61.2659 44.1792 64.0828 46.644C66.5476 49.1088 69.7166 50.1651 73.5898 50.1651C76.4067 50.1651 79.9278 49.4609 82.0405 47.3482V50.1651H90.1391V16.3623H82.0405V34.32Z" fill="#17313B"/>
<path d="M105.984 4.03809H97.8853V16.362H91.8994V24.1085H97.8853V50.1648H105.984V24.1085H111.97V16.362H105.984V4.03809Z" fill="#17313B"/>
<path d="M137.323 39.954C135.562 41.3624 133.097 42.4188 130.632 42.4188C124.999 42.4188 121.125 38.1934 121.125 32.5596C121.125 26.9258 124.999 23.0526 130.632 23.0526C133.097 23.0526 135.562 23.7568 137.323 25.5174L138.379 26.5737L144.013 21.292L142.604 20.2357C139.435 17.4188 135.21 15.6582 130.632 15.6582C120.773 15.6582 113.379 23.0526 113.379 32.9117C113.379 42.7709 120.773 50.1652 130.632 50.1652C135.21 50.1652 139.435 48.4047 142.604 45.5878L144.013 44.5314L138.379 38.8976L137.323 39.954Z" fill="#17313B"/>
<path d="M172.533 19.1791C170.069 16.7143 167.604 15.658 163.731 15.658C160.914 15.658 158.097 16.3622 155.984 18.4749V0.165039H147.885V50.165H155.984V31.5031C155.984 23.7566 161.266 23.0524 163.378 23.0524C168.308 23.0524 167.956 27.6298 167.956 30.0946V49.8129H176.055V30.4467C176.055 25.8693 174.998 21.6439 172.533 19.1791Z" fill="#17313B"/>
<path d="M130.28 38.5454C133.392 38.5454 135.914 36.0231 135.914 32.9116C135.914 29.8002 133.392 27.2778 130.28 27.2778C127.169 27.2778 124.646 29.8002 124.646 32.9116C124.646 36.0231 127.169 38.5454 130.28 38.5454Z" fill="#EF4335"/>
<path d="M34.5051 37.841C31.6882 40.6579 27.4628 42.4185 22.8854 42.4185C14.0826 42.4185 7.74452 35.3762 7.74452 25.8692C7.74452 16.3622 14.0826 9.31991 23.2375 9.31991C27.4628 9.31991 31.6882 11.0805 34.8572 14.2495L35.9135 15.3058L41.1952 10.0241L40.1389 8.9678C35.5614 4.39033 29.5755 1.92554 23.2375 1.92554C9.8572 1.57343 -0.00195312 12.1368 -0.00195312 25.8692C-0.00195312 39.6016 9.8572 50.165 22.8854 50.165C29.2234 50.165 35.5614 47.7002 39.7868 43.1227L40.8431 42.0664L35.5614 36.7847L34.5051 37.841Z" fill="#17313B"/>
</svg>
