<svg width="212" height="51" viewBox="0 0 212 51" fill="none" xmlns="http://www.w3.org/2000/svg">
<g clip-path="url(#clip0_4315_50830)">
<path d="M49.6941 24.9447C49.6941 38.6294 38.5992 49.7244 24.9144 49.7244C11.228 49.7244 0.134766 38.6294 0.134766 24.9447C0.134766 11.2583 11.2288 0.165039 24.9144 0.165039C38.5992 0.165039 49.6941 11.2591 49.6941 24.9447Z" fill="#DA552F"/>
<path d="M28.2175 24.9445H21.1971V17.5106H28.2175C28.7056 17.5106 29.1889 17.6068 29.6399 17.7936C30.0909 17.9804 30.5006 18.2541 30.8458 18.5993C31.1909 18.9444 31.4647 19.3542 31.6515 19.8052C31.8383 20.2561 31.9344 20.7395 31.9344 21.2276C31.9344 21.7157 31.8383 22.199 31.6515 22.65C31.4647 23.1009 31.1909 23.5107 30.8458 23.8558C30.5006 24.201 30.0909 24.4748 29.6399 24.6616C29.1889 24.8484 28.7056 24.9445 28.2175 24.9445ZM28.2175 12.5547H16.2412V37.3344H21.1971V29.9005H28.2175C33.0073 29.9005 36.8904 26.0174 36.8904 21.2276C36.8904 16.4377 33.0073 12.5547 28.2175 12.5547Z" fill="white"/>
<path d="M75.7248 21.9159C75.7248 20.5524 74.6773 19.7261 73.3163 19.7261H69.668V24.0803H73.3171C74.6781 24.0803 75.7248 23.2541 75.7248 21.9159ZM66.2129 33.2041V16.6846H73.8019C77.3307 16.6846 79.251 19.0693 79.251 21.9159C79.251 24.738 77.3061 27.1219 73.8019 27.1219H69.668V33.2041H66.2129ZM81.3544 33.2041V21.1608H84.4417V22.7422C85.2934 21.7202 86.7298 20.8693 88.19 20.8693V23.8854C87.9697 23.8371 87.7027 23.8134 87.3383 23.8134C86.3163 23.8134 84.9527 24.3964 84.4417 25.1524V33.2041H81.3544ZM98.5832 27.0244C98.5832 25.1998 97.5103 23.6185 95.5646 23.6185C93.6417 23.6185 92.5731 25.1998 92.5731 27.0252C92.5731 28.8736 93.6417 30.4549 95.5646 30.4549C97.5103 30.4549 98.5832 28.8736 98.5832 27.0244ZM89.3603 27.0244C89.3603 23.6922 91.6959 20.8693 95.5646 20.8693C99.4578 20.8693 101.793 23.6913 101.793 27.0244C101.793 30.3575 99.4578 33.2041 95.5646 33.2041C91.6959 33.2041 89.3603 30.3575 89.3603 27.0244ZM112.19 29.1168V24.9566C111.679 24.1769 110.56 23.6185 109.537 23.6185C107.763 23.6185 106.546 25.0049 106.546 27.0252C106.546 29.0676 107.763 30.4549 109.537 30.4549C110.56 30.4549 111.679 29.8964 112.19 29.1168ZM112.19 33.2041V31.4041C111.265 32.571 110.001 33.2041 108.565 33.2041C105.621 33.2041 103.359 30.9668 103.359 27.0244C103.359 23.2058 105.573 20.8693 108.565 20.8693C109.951 20.8693 111.265 21.4541 112.19 22.6693V16.6846H115.304V33.2041H112.19ZM126.309 33.2041V31.4278C125.507 32.3041 124.096 33.2041 122.173 33.2041C119.595 33.2041 118.379 31.793 118.379 29.5058V21.1608H121.467V28.2897C121.467 29.9202 122.319 30.4549 123.632 30.4549C124.824 30.4549 125.774 29.7981 126.309 29.1159V21.1608H129.398V33.2041H126.309ZM131.719 27.0244C131.719 23.4244 134.346 20.8693 137.948 20.8693C140.356 20.8693 141.815 21.9159 142.594 22.9863L140.574 24.8829C140.015 24.0558 139.164 23.6185 138.093 23.6185C136.22 23.6185 134.907 24.9812 134.907 27.0252C134.907 29.0676 136.22 30.4549 138.093 30.4549C139.164 30.4549 140.015 29.9685 140.574 29.1651L142.594 31.0634C141.815 32.1337 140.356 33.2041 137.948 33.2041C134.346 33.2041 131.719 30.6498 131.719 27.0244ZM145.251 29.9685V23.8617H143.305V21.1608H145.251V17.949H148.342V21.1608H150.724V23.8617H148.342V29.1414C148.342 29.8956 148.729 30.4549 149.411 30.4549C149.872 30.4549 150.313 30.2846 150.481 30.0905L151.139 32.449C150.677 32.8642 149.849 33.2041 148.559 33.2041C146.394 33.2041 145.251 32.0854 145.251 29.9685ZM170.515 33.2041V26.0752H162.851V33.2041H159.398V16.6846H162.851V23.0583H170.515V16.6854H173.994V33.2041H170.515ZM185.051 33.2041V31.4278C184.248 32.3041 182.837 33.2041 180.915 33.2041C178.337 33.2041 177.121 31.793 177.121 29.5058V21.1608H180.209V28.2897C180.209 29.9202 181.06 30.4549 182.375 30.4549C183.566 30.4549 184.516 29.7981 185.051 29.1159V21.1608H188.141V33.2041H185.051ZM199.143 33.2041V25.8091C199.143 24.1786 198.293 23.6193 196.978 23.6193C195.762 23.6193 194.838 24.3007 194.302 24.982V33.2049H191.214V21.1608H194.302V22.6693C195.057 21.7939 196.516 20.8693 198.414 20.8693C201.017 20.8693 202.258 22.3286 202.258 24.6151V33.2041H199.143H199.143ZM205.939 29.9685V23.8617H203.995V21.1608H205.94V17.949H209.031V21.1608H211.414V23.8617H209.031V29.1414C209.031 29.8956 209.419 30.4549 210.1 30.4549C210.562 30.4549 211.002 30.2846 211.171 30.0905L211.827 32.449C211.366 32.8642 210.537 33.2041 209.248 33.2041C207.083 33.2041 205.939 32.0854 205.939 29.9685Z" fill="#DA552F"/>
</g>
<defs>
<clipPath id="clip0_4315_50830">
<rect width="211.864" height="50" fill="white" transform="translate(0.135742 0.165039)"/>
</clipPath>
</defs>
</svg>
