<svg width="111" height="51" viewBox="0 0 111 51" fill="none" xmlns="http://www.w3.org/2000/svg">
<mask id="mask0_4315_50769" style="mask-type:luminance" maskUnits="userSpaceOnUse" x="28" y="32" width="19" height="17">
<path d="M35.0469 45.0779C34.6399 44.9559 34.3347 44.7524 34.1108 44.4471C33.887 44.1419 33.7649 43.7756 33.7649 43.3279C33.7649 42.8803 33.887 42.4122 34.1108 41.9239C34.3347 41.4355 34.6399 40.9471 35.0266 40.4994C35.4132 40.0314 35.8812 39.6041 36.3899 39.1971C36.8987 38.8105 37.4684 38.4645 38.0585 38.1797C38.6487 37.9151 39.2184 37.732 39.7475 37.6506C40.2766 37.5692 40.7446 37.5895 41.1516 37.6913C41.5586 37.793 41.9045 37.9965 42.1283 38.2611C42.3725 38.5459 42.515 38.9122 42.5353 39.3395C42.5557 39.7872 42.4539 40.2756 42.2504 40.764C42.0469 41.2523 41.7214 41.7611 41.3347 42.2494C40.9481 42.7378 40.4597 43.1855 39.9306 43.6128C39.4016 44.0198 38.8115 44.3861 38.201 44.6506C37.5905 44.9355 37.0004 45.0983 36.451 45.1593C36.2678 45.1797 36.0847 45.2 35.9016 45.2C35.5963 45.2 35.3114 45.1593 35.0469 45.0779ZM42.0469 32.3599C41.5586 32.3599 41.0498 32.4006 40.5004 32.5023C39.4219 32.6854 38.262 33.0517 37.0411 33.6215C35.8202 34.1913 34.6806 34.9035 33.6428 35.6971C32.605 36.511 31.6486 37.4064 30.855 38.3424C30.0614 39.2785 29.3899 40.2756 28.9219 41.2727C28.4538 42.2698 28.169 43.2465 28.1283 44.1826C28.0876 45.1186 28.3114 45.9123 28.7387 46.5431C29.1661 47.1739 29.8172 47.6419 30.6312 47.9065C31.4451 48.1913 32.4422 48.2524 33.5614 48.1303C34.6806 47.9878 35.8812 47.3367 37.1835 46.7669C38.5062 46.1768 39.5033 45.3425 40.6632 44.4675C41.8027 43.5925 42.7998 42.6564 43.6342 41.6186C44.4685 40.5808 45.3028 39.8076 45.8115 38.7901C46.422 37.5692 46.7068 36.6738 46.6254 35.7581C46.5644 34.8424 46.076 34.1302 45.5673 33.5604C45.0586 33.011 44.2853 32.7058 43.4307 32.5227C43.0033 32.4209 42.5557 32.3802 42.0673 32.3802C42.0673 32.3599 42.0469 32.3599 42.0469 32.3599Z" fill="white"/>
</mask>
<g mask="url(#mask0_4315_50769)">
<path d="M46.7073 32.3599H28.1084V48.2524H46.7073V32.3599Z" fill="url(#paint0_radial_4315_50769)"/>
</g>
<mask id="mask1_4315_50769" style="mask-type:luminance" maskUnits="userSpaceOnUse" x="1" y="1" width="18" height="20">
<path d="M1.49365 20.4553C1.49365 20.4146 1.49365 20.3536 1.49365 20.3129V20.4553ZM16.0838 2.14126C14.8629 2.71103 14.2117 3.05696 13.0722 3.76917C9.67393 5.88546 7.63903 7.00465 5.15646 10.057C4.15936 11.2779 3.56924 11.9901 2.87738 13.4146C2.53145 14.1268 2.12447 15.2867 2.12447 15.2867L1.94133 16.589L1.67679 18.3594L1.53435 19.9466L1.514 20.3536C1.514 20.2518 1.53435 20.1704 1.53435 20.0687C1.5547 19.9262 1.5547 19.7838 1.5954 19.6413C1.61575 19.4989 1.63609 19.3565 1.67679 19.1937C1.71749 19.0512 1.73784 18.8884 1.77854 18.7256C2.18552 17.1588 2.87738 15.5105 3.97622 13.6791C5.19716 11.6442 6.11286 10.6064 7.80182 8.9785C9.47044 7.35058 10.5896 6.17035 12.6042 4.68487C13.8251 3.78952 16.8164 1.89707 18.5868 1.65288C18.7089 1.63253 18.7496 1.63253 18.7089 1.63253C18.5257 1.59184 16.8164 1.77498 16.0838 2.14126Z" fill="white"/>
</mask>
<g mask="url(#mask1_4315_50769)">
<path d="M18.7491 1.5918H1.49316V20.4553H18.7491V1.5918Z" fill="url(#paint1_linear_4315_50769)"/>
</g>
<mask id="mask2_4315_50769" style="mask-type:luminance" maskUnits="userSpaceOnUse" x="-1" y="0" width="39" height="36">
<path d="M2.71255 35.4121L2.59046 35.2086C2.63116 35.29 2.67186 35.3511 2.71255 35.4121ZM37.7941 5.13292C37.7127 5.03117 37.611 4.92943 37.5092 4.84803L37.7941 5.13292ZM25.7272 0.493359C24.4045 0.778244 23.5295 1.08348 22.044 1.71429C20.5586 2.34511 19.0121 3.13872 17.4045 4.13582C15.1865 5.4992 13.0498 7.08642 11.0963 8.79573C9.14282 10.505 7.33176 12.3568 5.76489 14.2492C4.17768 16.162 2.83465 18.1359 1.8172 20.0487C0.779404 22.0022 0.331727 23.9353 0.0264933 25.7057C-0.0345536 26.0516 0.0264936 26.3772 0.00614464 26.7028C-0.0142043 27.0284 0.291029 29.0836 0.636961 30.5691C0.779404 31.1999 0.8608 31.5662 1.08464 32.1767C1.32883 32.9092 1.8579 33.9877 1.8579 33.9877L2.12243 34.4557L2.59046 35.2086C2.42767 34.9238 2.28523 34.6389 2.18348 34.3336C2.04104 33.947 1.93929 33.5197 1.8579 33.072C1.79685 32.6243 1.75615 32.1563 1.75615 31.6679C1.75615 31.1796 1.79685 30.6505 1.87825 30.1011C2.16313 28.1883 2.89569 26.133 3.97419 24.0371C5.03233 21.9818 6.43641 19.9062 8.08467 17.8917C9.71259 15.8975 11.5847 13.944 13.6399 12.1533C15.6748 10.3626 17.9132 8.69398 20.2533 7.2899C22.1458 6.15036 23.9772 5.23466 25.7272 4.56315C27.4772 3.89163 29.1255 3.44395 30.6516 3.24047C32.1982 3.03698 33.5819 3.07767 34.7825 3.38291C35.861 3.64744 36.7767 4.13582 37.4889 4.82768L36.4714 3.76954L35.1081 2.5486L34.4162 1.99918L32.8493 1.36836C31.9947 1.10383 30.9569 0.717198 29.8173 0.554406C29.1255 0.452661 28.1691 0.330566 27.2127 0.330566C26.704 0.350915 26.1952 0.391614 25.7272 0.493359Z" fill="white"/>
</mask>
<g mask="url(#mask2_4315_50769)">
<path d="M37.7948 0.351074H0.00683594V35.4123H37.7948V0.351074Z" fill="url(#paint2_radial_4315_50769)"/>
</g>
<mask id="mask3_4315_50769" style="mask-type:luminance" maskUnits="userSpaceOnUse" x="4" y="5" width="43" height="41">
<path d="M13.5174 45.3426L12.9476 45.1391C13.1307 45.2205 13.3139 45.2815 13.5174 45.3426ZM34.4768 5.68248C32.6861 5.86562 30.7326 6.37435 28.657 7.1883C26.6221 8.00226 24.4651 9.12145 22.2471 10.5662C19.7848 12.1534 17.4854 14.0052 15.3895 15.9994C13.2935 17.9732 11.4011 20.1302 9.79351 22.3076C8.1656 24.5052 6.82257 26.764 5.86617 28.9617C4.86907 31.2 4.27895 33.3977 4.15686 35.4123C4.11616 36.1855 4.13651 36.8774 4.23825 37.5489C4.34 38.2204 4.50279 38.8309 4.72663 39.3803C4.95047 39.9501 5.2557 40.4588 5.62198 40.9065C5.98826 41.3542 6.41559 41.7611 6.90397 42.0867L8.57258 43.1449L10.1598 43.9995L11.9302 44.7728L12.9476 45.1391C12.4185 44.9152 11.9302 44.6507 11.4825 44.3251C10.8924 43.8978 10.404 43.3687 10.0174 42.7582C9.63072 42.1478 9.34584 41.4559 9.14235 40.6827C8.95921 39.9094 8.87781 39.0751 8.89816 38.139C8.95921 36.2466 9.46793 34.171 10.3429 32.0751C11.2179 29.9995 12.4389 27.8832 13.9447 25.8279C15.4302 23.793 17.1802 21.7785 19.1133 19.9471C21.0668 18.0953 23.2238 16.386 25.5232 14.9209C27.8227 13.4558 30.0611 12.3569 32.1773 11.6244C34.314 10.8715 37.1221 10.3424 38.9128 10.3424C40.7239 10.3627 42.3111 10.7697 43.5524 11.5837C44.814 12.418 45.0582 13.8424 45.4855 15.5517L46.1571 15.4093L44.0001 9.75227L43.4507 8.51098C42.7181 7.2697 41.4768 6.43539 40.0931 5.94702C39.2791 5.64178 38.0785 5.54004 36.8576 5.54004C36.0436 5.56039 35.2093 5.60109 34.4768 5.68248Z" fill="white"/>
</mask>
<g mask="url(#mask3_4315_50769)">
<path d="M46.1377 5.56055H4.11719V45.3427H46.1377V5.56055Z" fill="url(#paint3_radial_4315_50769)"/>
</g>
<mask id="mask4_4315_50769" style="mask-type:luminance" maskUnits="userSpaceOnUse" x="13" y="16" width="37" height="34">
<path d="M31.7504 47.723L30.7736 48.0893C31.2009 47.9468 31.6283 47.784 32.0759 47.6009L31.7504 47.723ZM36.0236 17.9932C33.9684 18.6851 31.7707 19.7229 29.512 21.1066C27.2736 22.4903 25.198 24.0979 23.3259 25.8479C21.4538 27.5979 19.7852 29.47 18.4015 31.4031C16.9974 33.3363 15.8782 35.3305 15.0846 37.2636C14.291 39.2375 13.8636 41.1503 13.884 42.9003C13.9043 43.9991 14.0875 44.9759 14.4334 45.8305C14.7997 46.6852 15.3084 47.4178 15.9799 47.9875C16.6515 48.5776 17.4451 49.066 18.4218 49.2695C19.4189 49.4933 20.3957 49.6561 21.6776 49.7172H21.9422L23.8143 49.5951L25.6457 49.3713L26.5614 49.2085L28.23 48.8422L29.8376 48.3742L30.2852 48.2317L30.7736 48.0486C29.5527 48.4556 28.3928 48.6997 27.3346 48.8015C25.9102 48.9439 24.6282 48.8015 23.5497 48.4352C22.4916 48.0689 21.6369 47.4381 21.0468 46.6038C20.4567 45.7695 20.1108 44.7113 20.0497 43.4701C19.9887 42.066 20.2939 40.5195 20.884 38.9322C21.4742 37.3654 22.3492 35.7578 23.4683 34.2113C24.5672 32.6648 25.9102 31.1386 27.3957 29.7345C28.9015 28.3305 30.5701 27.0485 32.3812 25.9496C34.1922 24.8508 35.9626 24.0368 37.6312 23.5281C39.3202 22.999 40.887 22.7752 42.2911 22.8566C43.6952 22.938 44.9365 23.3043 45.8725 23.9961C46.8289 24.688 47.5208 25.7054 47.826 27.0485C47.9685 26.6415 48.8638 26.3363 48.9859 25.9089C49.108 25.4816 49.2098 25.0746 49.2911 24.6473C49.3725 24.22 49.6371 21.9002 49.6574 21.4729C49.576 21.2287 49.5964 20.9845 49.4539 20.7403C48.8231 19.5397 48.172 19.092 47.1138 18.3798C45.9132 17.5659 43.6138 17.0368 41.8434 16.9961C41.762 16.9961 41.6806 16.9961 41.5993 16.9961C39.8899 16.9961 38.0178 17.3217 36.0236 17.9932Z" fill="white"/>
</mask>
<g mask="url(#mask4_4315_50769)">
<path d="M49.6173 16.9961H13.8643V49.7579H49.6173V16.9961Z" fill="url(#paint4_radial_4315_50769)"/>
</g>
<path d="M27.2537 3.42352C27.0096 4.21712 26.4601 5.09213 25.6869 5.94678C24.8933 6.82179 23.8555 7.71714 22.6549 8.55145C21.4339 9.4061 20.0706 10.1997 18.6054 10.8916C17.1403 11.5834 15.5938 12.1736 14.0269 12.6212C12.4804 13.0486 11.0967 13.2724 9.8961 13.3334C8.71586 13.3741 7.73911 13.2521 6.9862 12.9672C6.25364 12.6823 5.76526 12.255 5.56177 11.6648C5.35828 11.0951 5.39898 10.4032 5.76526 9.58924C5.86701 9.34506 6.00945 9.10087 6.17224 8.85668C6.33503 8.61249 6.49783 8.34796 6.70131 8.10377C6.9048 7.85958 7.12864 7.59505 7.35248 7.35086C7.59667 7.10667 7.84085 6.84214 8.12574 6.59795L8.8583 5.94678C9.9368 5.07178 11.0967 4.25782 12.2973 3.54561L12.9484 3.17933C12.9484 3.17933 11.6258 4.19678 10.9746 5.01073C10.6083 5.47876 10.3234 5.86539 10.1403 6.27237C9.97749 6.659 9.95714 7.00493 10.0792 7.26947C10.2013 7.534 10.4659 7.73749 10.8321 7.85958C11.1984 7.98168 11.7072 8.04273 12.2769 8.00203C12.867 7.96133 13.5386 7.83923 14.2915 7.63575C15.0444 7.41191 15.7973 7.12702 16.5095 6.78109C17.2217 6.43516 17.8932 6.04853 18.4834 5.64155C19.0735 5.23457 19.5822 4.80724 19.9892 4.37992C20.3962 3.95259 20.681 3.52526 20.8235 3.13863C20.9659 2.752 20.9456 2.42642 20.7828 2.16188C20.62 1.91769 20.3351 1.73455 19.9485 1.61246C19.5618 1.51072 19.0735 1.53106 18.5037 1.63281C17.9543 1.73455 17.2828 1.7956 16.5705 1.99909C16.1025 2.14153 15.838 2.24328 15.3903 2.44677C16.7537 1.73455 17.5676 1.40897 19.0531 0.940945C20.0095 0.635711 20.6607 0.47292 21.5357 0.310128C22.5531 0.126988 23.4078 0.147337 24.1811 0.208384C24.9543 0.26943 25.6258 0.432222 26.1346 0.696758C26.6433 0.961295 27.0299 1.30723 27.213 1.7549C27.4165 2.24328 27.4369 2.7927 27.2537 3.42352Z" fill="#E50012"/>
<path d="M46.3825 37.4878C46.3825 37.4878 46.0366 38.4035 45.7313 38.9529C45.4465 39.4617 44.897 40.1739 44.897 40.1739C44.897 40.1739 44.7139 40.4181 44.5918 40.5809C44.2459 41.0285 43.6761 41.6797 43.6761 41.6797L42.9232 42.514C42.1296 43.328 41.2342 44.1012 40.2575 44.8541C39.2604 45.5867 38.1819 46.2786 37.0424 46.9094C35.9028 47.5402 34.6819 48.0896 33.4406 48.5576C32.1993 49.0257 30.9173 49.4123 29.615 49.6768C29.3505 49.7379 29.1063 49.7786 28.8621 49.8193C28.6179 49.86 28.3737 49.9007 28.1295 49.9414C27.8853 49.9821 27.6411 50.0024 27.4173 50.0431C27.1731 50.0635 26.9493 50.0838 26.7254 50.1042L25.3214 50.1652H25.0161L23.5103 50.1245L21.9841 49.9821C21.9841 49.9821 21.7196 49.9414 21.5568 49.921C20.926 49.8396 20.5597 49.7786 19.9289 49.6361C19.2777 49.514 18.301 49.2495 18.301 49.2495L17.487 48.9646L17.2632 48.8629C17.833 49.0867 18.6062 49.3105 19.3388 49.4123C20.0917 49.5344 20.9056 49.5954 21.7603 49.5954C22.615 49.6158 23.5307 49.5547 24.4667 49.4733C25.4231 49.3716 26.3999 49.2088 27.4173 49.0053C29.7574 48.5169 32.0976 47.7233 34.2952 46.7466C36.5133 45.7698 38.5889 44.5896 40.4406 43.2669C42.2924 41.9646 43.8999 40.5198 45.2226 39.0343C45.6703 38.5256 46.0569 38.0576 46.4232 37.4878C46.4029 37.4471 46.3825 37.4878 46.3825 37.4878Z" fill="#E50012"/>
<path d="M32.8906 1.40885L34.5389 2.01932L36.1668 2.77223L36.7366 3.07747C37.1843 3.32165 37.5912 3.60654 37.9168 3.91177C38.2628 4.23736 38.5273 4.58329 38.7308 4.99027C38.9343 5.39725 39.0564 5.84492 39.1174 6.31295C39.1785 6.80132 39.1378 7.3304 39.036 7.87982C38.7308 9.36529 37.8761 10.9729 36.5534 12.5804C35.2104 14.2287 33.3994 15.8973 31.2424 17.4642C29.065 19.0514 26.5621 20.5369 23.8964 21.8188C21.2103 23.1008 18.3818 24.159 15.533 24.8915C12.9894 25.5427 10.6899 25.8886 8.6754 25.9293C6.70155 25.97 5.03294 25.7462 3.71026 25.2578C2.42828 24.7898 1.47188 24.0776 0.922455 23.1822C0.393383 22.3072 0.230591 21.2287 0.474778 19.9874L0.596871 19.4584L1.0649 17.7084L1.65502 16.0194L2.26548 14.595L2.81491 13.4351L2.71316 13.6589C2.73351 13.6182 2.69281 13.6996 2.69281 13.6996C2.16374 14.8595 2.062 15.8769 2.32653 16.7113C2.61142 17.5659 3.28293 18.2578 4.30038 18.7055C5.33817 19.1735 6.74225 19.3973 8.43121 19.377C10.1405 19.3566 12.1551 19.0514 14.4138 18.4409C16.6725 17.8304 18.9313 16.9758 21.0679 15.9583C23.2045 14.9409 25.1987 13.7607 26.9487 12.5194C28.6784 11.2781 30.1639 9.97576 31.2627 8.67342C32.3616 7.39144 33.0941 6.12981 33.3994 4.96992C33.5418 4.3798 33.5622 3.83038 33.4808 3.342C33.379 2.85363 33.1755 2.4263 32.8703 2.06002C32.5651 1.69374 32.1581 1.3885 31.6697 1.14432C31.3441 0.981526 30.9778 0.839083 30.5709 0.71699L29.9604 0.554199C30.2249 0.594897 30.3674 0.615246 30.5709 0.676293C30.5709 0.676293 31.161 0.818734 31.5476 0.920479C32.0767 1.12397 32.8906 1.40885 32.8906 1.40885Z" fill="#E50012"/>
<path d="M43.8387 8.75512L45.0596 10.3016L46.1788 11.9499L46.6672 12.7842C46.8096 13.0487 46.9521 13.3133 47.0335 13.6185C47.1352 13.9034 47.2166 14.2086 47.2777 14.5139C47.3387 14.8191 47.3591 15.165 47.3794 15.4906C47.3794 15.8365 47.3591 16.1825 47.3184 16.5488C47.0742 18.4412 46.1381 20.4558 44.6323 22.511C43.0858 24.5866 40.9695 26.6825 38.4259 28.636C35.8416 30.6099 32.8503 32.4413 29.6351 33.9878C26.3997 35.5343 22.9607 36.7756 19.5217 37.5896C17.0595 38.1593 14.7804 38.4849 12.7252 38.5663C10.6903 38.6477 8.87922 38.4849 7.3327 38.1186C5.80653 37.7523 4.54489 37.2029 3.56814 36.4704C2.61174 35.7582 1.91988 34.8628 1.53325 33.8454L1.14662 32.7262L0.617548 30.8134L0.251266 28.8802L0.169871 28.3308L0.068126 27.2523C0.210569 28.2901 0.637896 29.1854 1.35011 29.9384C2.14372 30.793 3.30361 31.4442 4.76873 31.8715C6.2542 32.3192 8.06526 32.5227 10.1409 32.4413C12.2571 32.3802 14.638 32.0343 17.2223 31.4035C20.4781 30.6099 23.7136 29.4093 26.7659 27.9645C29.8183 26.4994 32.6671 24.7901 35.109 22.9587C37.5305 21.1273 39.5654 19.1941 41.0509 17.2813C42.516 15.3889 43.4317 13.5371 43.7166 11.8075C43.798 11.3191 43.8183 10.8714 43.798 10.4237C43.7776 9.9964 43.6963 9.58942 43.5742 9.20279C43.4521 8.81616 43.2893 8.47023 43.0654 8.1243C42.9433 7.92081 42.7805 7.73767 42.6178 7.53418L43.6352 8.61267L43.8387 8.75512Z" fill="#E50012"/>
<path d="M49.8621 23.1211C50.0045 24.6879 50.0655 25.5833 49.801 27.1298C49.4144 29.5106 48.7836 30.9147 47.4609 32.8682C46.0975 34.8421 44.2051 36.8159 41.926 38.627C39.6265 40.4584 36.9405 42.1473 34.0102 43.5311C31.1003 44.9351 27.9869 46.034 24.8532 46.7055C23.2253 47.0514 21.6788 47.2753 20.234 47.377C18.7892 47.4788 17.4462 47.4584 16.2253 47.3363C15.0043 47.2142 13.9055 46.97 12.9084 46.6444C11.9316 46.3189 11.077 45.8915 10.3648 45.3828L8.85895 44.2026L7.59731 43.063C7.59731 43.063 6.74266 42.2287 6.23393 41.6386C5.86765 41.2316 5.35893 40.5398 5.35893 40.5398C5.94905 41.2113 6.66126 41.7811 7.55662 42.2491C8.61476 42.7985 9.85604 43.2258 11.3008 43.47C12.7659 43.7346 14.4142 43.8159 16.2253 43.7346C18.0567 43.6532 20.0509 43.3683 22.1672 42.9002C25.5654 42.127 28.9637 40.9264 32.1381 39.4002C35.3126 37.8741 38.2428 36.063 40.7661 34.0892C43.2487 32.1357 45.3242 30.0397 46.8097 27.9234C48.2748 25.8682 49.1702 23.7926 49.3737 21.8594C49.394 21.656 49.4144 21.4525 49.4144 21.249C49.4144 21.0455 49.394 20.842 49.3737 20.6589C49.3533 20.4554 49.6382 21.5339 49.6382 21.5339C49.6382 21.5339 49.801 22.5106 49.8621 23.1211Z" fill="#E50012"/>
<path d="M60.3418 13.6574H62.1325V15.5702H62.1732C62.4377 14.8173 63.2313 13.4336 65.1034 13.4336V15.3871C63.4755 15.3871 62.1325 16.201 62.1325 19.1313V23.1604H60.3418V13.6574Z" fill="#231815"/>
<path d="M71.7773 16.5063C71.7773 15.9162 71.411 14.8173 70.0476 14.8173C68.5621 14.8173 68.1551 16.079 68.1551 16.5063H71.7773ZM73.3645 23.0586C72.5912 23.2418 72.0214 23.3842 70.9836 23.3842C68.0941 23.3842 66.2627 21.6953 66.2627 17.9511C66.2627 13.8813 68.9284 13.4336 70.1493 13.4336C72.4691 13.4336 73.5883 15.0208 73.5883 17.2592V17.7272H68.0738C68.0738 19.4976 68.9691 22.0005 71.5738 22.0005C72.3877 22.0005 72.9575 21.797 73.3645 21.6546V23.0586Z" fill="#231815"/>
<path d="M78.9609 21.9803C80.426 21.9803 81.0161 19.9657 81.0161 18.3785C81.0161 16.7099 80.5277 14.8174 78.9405 14.8174C77.5364 14.8174 77.0888 16.4047 77.0888 18.3989C77.0888 19.8436 77.2719 21.9803 78.9609 21.9803ZM81.0161 21.7157H80.9754C80.7719 22.2448 79.9987 23.4047 78.33 23.4047C76.0103 23.4047 75.0742 21.3088 75.0742 18.582C75.0742 15.4279 76.2748 13.4337 78.4318 13.4337C80.019 13.4337 80.7516 14.4105 80.9754 14.9802H81.0161V9.38428H82.8068V23.1809H81.0161V21.7157Z" fill="#231815"/>
<path d="M88.7685 21.9803C90.2336 21.9803 90.8237 19.9657 90.8237 18.3785C90.8237 16.7099 90.3354 14.8174 88.7481 14.8174C87.3441 14.8174 86.8964 16.4047 86.8964 18.3989C86.8964 19.8436 87.0999 21.9803 88.7685 21.9803ZM90.8237 21.7157H90.783C90.5795 22.2448 89.8063 23.4047 88.1377 23.4047C85.8179 23.4047 84.8818 21.3088 84.8818 18.582C84.8818 15.4279 86.0824 13.4337 88.2394 13.4337C89.8266 13.4337 90.5592 14.4105 90.783 14.9802H90.8237V9.38428H92.6144V23.1809H90.8237V21.7157Z" fill="#E50012"/>
<path d="M99.0452 21.9801C100.978 21.9801 101.243 19.9249 101.243 18.3987C101.243 16.8522 100.978 14.8173 99.0452 14.8173C97.0714 14.8173 96.8272 16.8522 96.8272 18.3987C96.8272 19.9249 97.0714 21.9801 99.0452 21.9801ZM94.833 18.4191C94.833 15.3871 96.176 13.4336 99.0452 13.4336C101.894 13.4336 103.237 15.3667 103.237 18.4191C103.237 21.4104 101.894 23.4046 99.0452 23.4046C96.1557 23.3842 94.833 21.4104 94.833 18.4191Z" fill="#E50012"/>
<path d="M110.502 23.2421C110.034 23.3438 109.566 23.3845 109.078 23.3845C106.778 23.3845 106.229 22.3671 106.229 21.0647V15.0414H104.52V13.6374H106.229V11.399L108.02 10.2798V13.6374H110.665V15.0414H108.02V20.1287C108.02 20.9833 108.142 21.9804 109.546 21.9804C109.871 21.9804 110.238 21.9194 110.502 21.838V23.2421Z" fill="#E50012"/>
<path d="M59.5479 32.8672H60.9926L62.2339 38.5852H62.2746L63.9839 32.8672H65.1235L66.8531 38.5852H66.8735L68.1148 32.8672H69.5595L67.7892 40.7626H66.2223L64.574 35.2887H64.5333L62.9461 40.7626H61.3793L59.5479 32.8672Z" fill="#231815"/>
<path d="M71.9403 40.7623H73.4258V32.8669H71.9403V40.7623ZM71.7979 31.0151H73.5886V29.3262H71.7979V31.0151Z" fill="#231815"/>
<path d="M76.3965 32.8667H77.882V34.5557H77.9227C78.1872 33.9045 78.818 32.6836 80.4256 32.6836C82.257 32.6836 82.5419 34.3115 82.5419 35.2883V40.7621H81.0564V36.4481C81.0564 34.983 81.0564 34.1691 79.9779 34.1691C78.757 34.1691 77.882 35.8173 77.882 37.4045V40.7418H76.3965V32.8667Z" fill="#231815"/>
<path d="M85.3301 32.8667H86.8156V34.5557H86.8562C87.1208 33.9045 87.7516 32.6836 89.3592 32.6836C91.1906 32.6836 91.4755 34.3115 91.4755 35.2883V40.7621H89.99V36.4481C89.99 34.983 89.99 34.1691 88.9115 34.1691C87.6906 34.1691 86.8156 35.8173 86.8156 37.4045V40.7418H85.3301V32.8667Z" fill="#231815"/>
<path d="M98.2719 35.2476C98.2719 34.7592 97.9666 33.8638 96.8271 33.8638C95.6062 33.8638 95.2602 34.9016 95.2602 35.2476H98.2719ZM99.5742 40.6807C98.923 40.8232 98.455 40.9453 97.6004 40.9453C95.2195 40.9453 93.6934 39.5412 93.6934 36.4278C93.6934 33.0499 95.891 32.6836 96.9085 32.6836C98.8416 32.6836 99.7573 33.9859 99.7573 35.858V36.2447H95.1992C95.1992 37.7098 95.9521 39.7854 98.1091 39.7854C98.7806 39.7854 99.2486 39.6226 99.5946 39.5005V40.6807H99.5742Z" fill="#231815"/>
<path d="M101.955 32.8667H103.441V34.4539H103.481C103.705 33.8231 104.356 32.6836 105.923 32.6836V34.3115C104.58 34.3115 103.461 34.983 103.461 37.4045V40.7418H101.975V32.8667H101.955Z" fill="#231815"/>
<defs>
<radialGradient id="paint0_radial_4315_50769" cx="0" cy="0" r="1" gradientUnits="userSpaceOnUse" gradientTransform="translate(40.0673 32.3604) scale(18.1605 18.1605)">
<stop stop-color="white"/>
<stop offset="1" stop-color="#E50012"/>
</radialGradient>
<linearGradient id="paint1_linear_4315_50769" x1="10.1265" y1="1.60118" x2="10.1265" y2="20.4582" gradientUnits="userSpaceOnUse">
<stop stop-color="#E50012"/>
<stop offset="1" stop-color="white"/>
</linearGradient>
<radialGradient id="paint2_radial_4315_50769" cx="0" cy="0" r="1" gradientUnits="userSpaceOnUse" gradientTransform="translate(26.0346 0.641001) scale(41.8516 41.8516)">
<stop stop-color="white"/>
<stop offset="1" stop-color="#E50012"/>
</radialGradient>
<radialGradient id="paint3_radial_4315_50769" cx="0" cy="0" r="1" gradientUnits="userSpaceOnUse" gradientTransform="translate(33.0699 5.87344) scale(44.658)">
<stop stop-color="white"/>
<stop offset="1" stop-color="#E50012"/>
</radialGradient>
<radialGradient id="paint4_radial_4315_50769" cx="0" cy="0" r="1" gradientUnits="userSpaceOnUse" gradientTransform="translate(38.5057 17.2614) scale(38.0978 38.0978)">
<stop stop-color="white"/>
<stop offset="1" stop-color="#E50012"/>
</radialGradient>
</defs>
</svg>
